<svg width="91" height="66" viewBox="0 0 91 66" fill="none" xmlns="http://www.w3.org/2000/svg">
<g filter="url(#filter0_f)">
<path d="M59.1925 49.7376H8V8H71.8841V13.1107" stroke="#F0FF4C" stroke-opacity="0.8" stroke-width="6" stroke-linecap="round" stroke-linejoin="round"/>
</g>
<g filter="url(#filter1_f)">
<path d="M71.8842 34.8313V13.1107H76.9949V34.661M61.9182 53.1448H13.9625V49.7376" stroke="#F0FF4C" stroke-opacity="0.8" stroke-width="6" stroke-linecap="round" stroke-linejoin="round"/>
</g>
<g filter="url(#filter2_f)">
<path d="M77.6763 37.8126C78.1339 34.987 82.2257 34.9589 82.7019 37.8126V47.1823C82.6167 50.5894 80.598 54.436 77.7615 58L66.6882 58L61.5775 52.8041C60.0954 51.2569 58.9756 49.6712 58.3407 48.0341V42.9233C58.3407 41.7308 58.8518 40.7939 59.7887 40.7939C60.2998 40.7939 61.0664 40.879 61.6627 42.0716L62.4293 44.3714V37.8126C62.6848 35.2572 66.603 34.8314 67.3697 37.8126M77.6763 41.6457V36.109C77.4208 33.2981 72.7375 33.189 72.3952 36.109M72.3952 36.109V39.7717M72.3952 36.109C72.0098 33.1519 67.66 33.39 67.3697 36.109V41.7308" stroke="#F0FF4C" stroke-opacity="0.8" stroke-width="6" stroke-linecap="round" stroke-linejoin="round"/>
</g>
<g filter="url(#filter3_f)">
<path d="M67.3696 45.138L68.5621 51.8671" stroke="#F0FF4C" stroke-opacity="0.8" stroke-width="6" stroke-linecap="round" stroke-linejoin="round"/>
</g>
<g filter="url(#filter4_f)">
<path d="M76.4838 51.8671L77.6763 45.138" stroke="#F0FF4C" stroke-opacity="0.8" stroke-width="6" stroke-linecap="round" stroke-linejoin="round"/>
</g>
<g filter="url(#filter5_f)">
<path d="M72.5656 51.1857V44.2862" stroke="#F0FF4C" stroke-opacity="0.8" stroke-width="6" stroke-linecap="round" stroke-linejoin="round"/>
</g>
<g filter="url(#filter6_f)">
<path d="M29.9761 27.3356C31.0581 27.3356 31.9353 26.4585 31.9353 25.3765C31.9353 24.2945 31.0581 23.4174 29.9761 23.4174C28.8942 23.4174 28.017 24.2945 28.017 25.3765C28.017 26.4585 28.8942 27.3356 29.9761 27.3356Z" stroke="#F0FF4C" stroke-opacity="0.8" stroke-width="6" stroke-linecap="round" stroke-linejoin="round"/>
</g>
<g filter="url(#filter7_f)">
<path d="M51.1005 27.3356C52.1825 27.3356 53.0596 26.4585 53.0596 25.3765C53.0596 24.2945 52.1825 23.4174 51.1005 23.4174C50.0185 23.4174 49.1414 24.2945 49.1414 25.3765C49.1414 26.4585 50.0185 27.3356 51.1005 27.3356Z" stroke="#F0FF4C" stroke-opacity="0.8" stroke-width="6" stroke-linecap="round" stroke-linejoin="round"/>
</g>
<g filter="url(#filter8_f)">
<path d="M35.598 27.8467C35.598 27.8467 45.6491 27.8467 45.6491 27.8467C45.4787 34.9165 35.7683 34.9165 35.598 27.8467" stroke="#F0FF4C" stroke-opacity="0.8" stroke-width="6" stroke-linecap="round" stroke-linejoin="round"/>
</g>
<path d="M59.1925 49.7376H8V8H71.8841V13.1107" stroke="#EAFF00" stroke-width="4" stroke-linecap="round"/>
<path d="M71.8842 34.8313V13.1107H76.9949V34.661M61.9182 53.1448H13.9625V49.7376" stroke="#EAFF00" stroke-width="4" stroke-linecap="round"/>
<path d="M77.6763 37.8126C78.1339 34.987 82.2257 34.9589 82.7019 37.8126V47.1823C82.6167 50.5894 80.598 54.436 77.7615 58L66.6882 58L61.5775 52.8041C60.0954 51.2569 58.9756 49.6712 58.3407 48.0341V42.9233C58.3407 41.7308 58.8518 40.7939 59.7887 40.7939C60.2998 40.7939 61.0664 40.8791 61.6627 42.0716L62.4293 44.3714V37.8126C62.6848 35.2572 66.603 34.8314 67.3697 37.8126M77.6763 41.6457V36.109C77.4208 33.2981 72.7375 33.189 72.3952 36.109M72.3952 36.109V39.7717M72.3952 36.109C72.0098 33.1519 67.66 33.39 67.3697 36.109V41.7308" stroke="#EAFF00" stroke-width="4" stroke-linecap="round"/>
<path d="M67.3696 45.138L68.5621 51.8671" stroke="#EAFF00" stroke-width="4" stroke-linecap="round"/>
<path d="M76.4838 51.8671L77.6763 45.138" stroke="#EAFF00" stroke-width="4" stroke-linecap="round"/>
<path d="M72.5656 51.1857V44.2862" stroke="#EAFF00" stroke-width="4" stroke-linecap="round"/>
<path d="M29.9761 27.3356C31.0581 27.3356 31.9353 26.4585 31.9353 25.3765C31.9353 24.2945 31.0581 23.4174 29.9761 23.4174C28.8942 23.4174 28.017 24.2945 28.017 25.3765C28.017 26.4585 28.8942 27.3356 29.9761 27.3356Z" stroke="#EAFF00" stroke-width="4" stroke-linecap="round" stroke-linejoin="round"/>
<path d="M51.1005 27.3356C52.1825 27.3356 53.0596 26.4585 53.0596 25.3765C53.0596 24.2945 52.1825 23.4174 51.1005 23.4174C50.0185 23.4174 49.1414 24.2945 49.1414 25.3765C49.1414 26.4585 50.0185 27.3356 51.1005 27.3356Z" stroke="#EAFF00" stroke-width="4" stroke-linecap="round" stroke-linejoin="round"/>
<path d="M35.598 27.8467H45.6491C45.4787 34.9165 35.7683 34.9165 35.598 27.8467" stroke="#EAFF00" stroke-width="4" stroke-linecap="round"/>
<path d="M59.1925 49.7377L8 49.7376V8H71.8841V13.1107" stroke="black" stroke-width="2" stroke-linecap="round"/>
<path d="M71.8842 34.8313V13.1107H76.9949V34.661M61.9182 53.1448H13.9625V49.7376" stroke="black" stroke-width="2" stroke-linecap="round"/>
<path d="M77.6763 37.8126C78.1339 34.987 82.2257 34.9589 82.7019 37.8126V47.1823C82.6167 50.5894 80.598 54.436 77.7615 58L66.6882 58L61.5775 52.8041C60.0954 51.2569 58.9756 49.6712 58.3407 48.0341V42.9233C58.3407 41.7308 58.8518 40.7939 59.7887 40.7939C60.2998 40.7939 61.0664 40.8791 61.6627 42.0716L62.4293 44.3714V37.8126C62.6848 35.2572 66.603 34.8314 67.3697 37.8126M77.6763 41.6457V36.109C77.4208 33.2981 72.7375 33.189 72.3952 36.109M72.3952 36.109V39.7717M72.3952 36.109C72.0098 33.1519 67.66 33.39 67.3697 36.109V41.7308" stroke="black" stroke-width="2" stroke-linecap="round"/>
<path d="M67.3696 45.138L68.5621 51.8671" stroke="black" stroke-width="2" stroke-linecap="round"/>
<path d="M76.4838 51.8671L77.6763 45.138" stroke="black" stroke-width="2" stroke-linecap="round"/>
<path d="M72.5656 51.1857V44.2862" stroke="black" stroke-width="2" stroke-linecap="round"/>
<path d="M29.9761 27.3356C31.0581 27.3356 31.9353 26.4585 31.9353 25.3765C31.9353 24.2945 31.0581 23.4174 29.9761 23.4174C28.8942 23.4174 28.017 24.2945 28.017 25.3765C28.017 26.4585 28.8942 27.3356 29.9761 27.3356Z" stroke="black" stroke-width="2" stroke-linecap="round" stroke-linejoin="round"/>
<path d="M51.1005 27.3356C52.1825 27.3356 53.0596 26.4585 53.0596 25.3765C53.0596 24.2945 52.1825 23.4174 51.1005 23.4174C50.0185 23.4174 49.1414 24.2945 49.1414 25.3765C49.1414 26.4585 50.0185 27.3356 51.1005 27.3356Z" stroke="black" stroke-width="2" stroke-linecap="round" stroke-linejoin="round"/>
<path d="M35.598 27.8467H45.6491C45.4787 34.9165 35.7683 34.9165 35.598 27.8467Z" stroke="black" stroke-width="2" stroke-linecap="round"/>
<defs>
<filter id="filter0_f" x="0.642313" y="0.642313" width="78.5995" height="56.453" filterUnits="userSpaceOnUse" color-interpolation-filters="sRGB">
<feFlood flood-opacity="0" result="BackgroundImageFix"/>
<feBlend mode="normal" in="SourceGraphic" in2="BackgroundImageFix" result="shape"/>
<feGaussianBlur stdDeviation="2.17884" result="effect1_foregroundBlur_302:3"/>
</filter>
<filter id="filter1_f" x="6.60484" y="5.75305" width="77.7477" height="54.7494" filterUnits="userSpaceOnUse" color-interpolation-filters="sRGB">
<feFlood flood-opacity="0" result="BackgroundImageFix"/>
<feBlend mode="normal" in="SourceGraphic" in2="BackgroundImageFix" result="shape"/>
<feGaussianBlur stdDeviation="2.17884" result="effect1_foregroundBlur_302:3"/>
</filter>
<filter id="filter2_f" x="50.983" y="26.6021" width="39.0766" height="38.7556" filterUnits="userSpaceOnUse" color-interpolation-filters="sRGB">
<feFlood flood-opacity="0" result="BackgroundImageFix"/>
<feBlend mode="normal" in="SourceGraphic" in2="BackgroundImageFix" result="shape"/>
<feGaussianBlur stdDeviation="2.17884" result="effect1_foregroundBlur_302:3"/>
</filter>
<filter id="filter3_f" x="60.0115" y="37.7798" width="15.9089" height="21.4455" filterUnits="userSpaceOnUse" color-interpolation-filters="sRGB">
<feFlood flood-opacity="0" result="BackgroundImageFix"/>
<feBlend mode="normal" in="SourceGraphic" in2="BackgroundImageFix" result="shape"/>
<feGaussianBlur stdDeviation="2.17884" result="effect1_foregroundBlur_302:3"/>
</filter>
<filter id="filter4_f" x="69.1256" y="37.7798" width="15.9089" height="21.4455" filterUnits="userSpaceOnUse" color-interpolation-filters="sRGB">
<feFlood flood-opacity="0" result="BackgroundImageFix"/>
<feBlend mode="normal" in="SourceGraphic" in2="BackgroundImageFix" result="shape"/>
<feGaussianBlur stdDeviation="2.17884" result="effect1_foregroundBlur_302:3"/>
</filter>
<filter id="filter5_f" x="65.2079" y="36.9285" width="14.7154" height="21.6149" filterUnits="userSpaceOnUse" color-interpolation-filters="sRGB">
<feFlood flood-opacity="0" result="BackgroundImageFix"/>
<feBlend mode="normal" in="SourceGraphic" in2="BackgroundImageFix" result="shape"/>
<feGaussianBlur stdDeviation="2.17884" result="effect1_foregroundBlur_302:3"/>
</filter>
<filter id="filter6_f" x="20.6593" y="16.0597" width="18.6336" height="18.6336" filterUnits="userSpaceOnUse" color-interpolation-filters="sRGB">
<feFlood flood-opacity="0" result="BackgroundImageFix"/>
<feBlend mode="normal" in="SourceGraphic" in2="BackgroundImageFix" result="shape"/>
<feGaussianBlur stdDeviation="2.17884" result="effect1_foregroundBlur_302:3"/>
</filter>
<filter id="filter7_f" x="41.7837" y="16.0597" width="18.6336" height="18.6336" filterUnits="userSpaceOnUse" color-interpolation-filters="sRGB">
<feFlood flood-opacity="0" result="BackgroundImageFix"/>
<feBlend mode="normal" in="SourceGraphic" in2="BackgroundImageFix" result="shape"/>
<feGaussianBlur stdDeviation="2.17884" result="effect1_foregroundBlur_302:3"/>
</filter>
<filter id="filter8_f" x="28.2403" y="20.489" width="24.7665" height="20.0178" filterUnits="userSpaceOnUse" color-interpolation-filters="sRGB">
<feFlood flood-opacity="0" result="BackgroundImageFix"/>
<feBlend mode="normal" in="SourceGraphic" in2="BackgroundImageFix" result="shape"/>
<feGaussianBlur stdDeviation="2.17884" result="effect1_foregroundBlur_302:3"/>
</filter>
</defs>
</svg>
